<svg width="36" height="52" viewBox="0 0 36 52" fill="none" xmlns="http://www.w3.org/2000/svg">
<g clip-path="url(#clip0_102_221)">
<path d="M28.1753 51.9223H3.73146C3.23831 51.9223 2.73694 51.4772 2.73694 50.8453C2.73694 50.3023 3.1479 49.7683 3.73146 49.7683H28.1753C28.6684 49.7683 29.1698 50.2133 29.1698 50.8453C29.0876 51.4772 28.6684 51.9223 28.1753 51.9223Z" fill="#87c55b"/>
<path d="M12.5918 27.3298C12.3452 27.3298 12.1809 27.2408 12.0082 27.1518C11.7617 26.9738 11.5973 26.6177 11.5973 26.3418V23.9208C11.5973 23.6538 11.7617 23.2889 11.9261 23.1109C12.0904 22.9329 12.4274 22.8439 12.674 22.8439L17.811 23.6538L19.0521 23.2978C19.2987 23.2088 19.6356 23.2978 19.8822 23.4758C20.1288 23.6538 20.2932 24.0099 20.2932 24.2858C20.2932 24.7308 20.0466 25.1847 19.6274 25.2737L12.9124 27.3387H12.5836L12.5918 27.3298Z" fill="#87c55b"/>
<path d="M19.3069 51.7442H12.5918C12.0987 51.7442 11.5973 51.2992 11.5973 50.6672V36.1325C11.5973 35.6875 11.8439 35.2335 12.263 35.1445L18.9781 33.0796C19.2247 32.9906 19.5617 33.0796 19.8082 33.2576C20.0548 33.4356 20.2192 33.7916 20.2192 34.0676V50.6672C20.3014 51.2102 19.8904 51.7442 19.3069 51.7442ZM13.5863 49.5903H18.3946V35.5006L13.5863 37.0226V49.5903Z" fill="#87c55b"/>
<path d="M12.5918 8.22009C12.3452 8.22009 12.1808 8.13109 12.0082 7.95307C11.7616 7.77506 11.6794 7.50804 11.6794 7.14312V1.84724C11.6794 1.3132 12.0904 0.770264 12.674 0.770264H19.389C19.8822 0.770264 20.3836 1.2153 20.3836 1.84724V5.79912C20.3836 6.24415 20.0548 6.69809 19.6356 6.78709L12.9205 8.22009H12.5918ZM13.5863 2.83521V5.88813L18.3945 4.90016V2.92422L13.5863 2.83521Z" fill="#87c55b"/>
<path d="M19.3069 16.293H19.1425L12.4274 15.305C11.9261 15.216 11.5973 14.762 11.5973 14.228C11.5973 13.961 11.7617 13.5961 11.9261 13.418C12.0904 13.24 12.4274 13.151 12.674 13.151L14.2521 13.418L19.1425 12.3411C19.3891 12.2521 19.7261 12.3411 19.9726 12.5191C20.2192 12.6971 20.3014 12.9641 20.3014 13.329V15.127C20.3014 15.394 20.137 15.7589 19.9726 15.9369C19.8082 16.2039 19.5617 16.293 19.3069 16.293Z" fill="#87c55b"/>
<path d="M14.3343 15.492H14.1699L8.8685 14.682C8.45754 14.593 8.12055 14.326 8.03836 13.872L7.04384 8.30914C6.96165 8.04213 7.04384 7.76621 7.20822 7.49919C7.37261 7.23217 7.53699 7.14316 7.79179 7.05416L22.874 3.91223C23.1206 3.91223 23.2849 3.91223 23.4575 4.00124L28.348 6.60022C28.5945 6.68923 28.7589 6.95625 28.8493 7.32117C28.9315 7.58819 28.8493 7.95312 28.6849 8.22014L25.126 13.0621C24.9616 13.2401 24.7973 13.4181 24.5425 13.4181L14.5151 15.5721C14.4329 15.4831 14.3507 15.4831 14.3507 15.4831L14.3343 15.492ZM9.78083 12.7061L14.2521 13.427L23.7781 11.3621L26.3425 7.86411L22.8658 5.97718L9.02466 8.94109L9.77261 12.7061H9.78083Z" fill="#87c55b"/>
<path d="M8.44928 38.4645C8.03832 38.4645 7.61914 38.1974 7.53695 37.7435L4.97257 28.6827C4.89038 28.4156 4.89038 28.1486 5.05476 27.8727C5.21914 27.6057 5.38353 27.4277 5.63832 27.3298L28.1753 20.3339C28.4219 20.2449 28.5863 20.3339 28.8411 20.4229L35.3835 23.5648C35.6301 23.6538 35.8767 23.9208 35.9671 24.2857C36.0493 24.6418 35.9671 24.9177 35.8027 25.1847L31.8246 31.1036C31.6602 31.2816 31.4959 31.4597 31.3315 31.4597L8.87668 38.3666C8.71229 38.4556 8.6301 38.4556 8.46572 38.4556L8.44928 38.4645ZM7.12599 29.0387L9.19722 36.1236L30.4109 29.5727L33.5589 24.9978L28.3397 22.4878L7.12599 29.0387Z" fill="#87c55b"/>
<path d="M17.9014 25.7187H17.737L5.55616 23.9208C5.30959 23.9208 5.14521 23.7428 4.9726 23.5648L0.246575 17.7348C0.0821918 17.4678 0 17.1919 0 16.8359C0.0821918 16.5689 0.246575 16.2039 0.493151 16.1149L6.46027 12.528C6.62466 12.439 6.87123 12.35 7.04384 12.439L26.1041 15.3139C26.3507 15.3139 26.5973 15.4919 26.7699 15.7589C26.9342 16.0259 27.0164 16.2039 26.9342 16.5689L26.1041 22.6747C26.0219 23.1197 25.7753 23.3956 25.4384 23.5737L18.2301 25.8166C18.1479 25.6386 17.9836 25.7276 17.9014 25.7276V25.7187ZM6.2137 21.8558L17.811 23.6538L24.2712 21.5888L24.8548 17.1919L7.11781 14.5039L2.47397 17.2898L6.20548 21.8647L6.2137 21.8558Z" fill="#87c55b"/>
<path d="M11.5973 32.9906C11.1863 32.9906 10.7671 32.7236 10.6849 32.1807C10.5205 31.6377 10.8493 31.0147 11.3507 30.9257L25.7671 26.7958C26.2603 26.6178 26.8438 26.9738 26.926 27.5167C27.0082 28.0508 26.7616 28.6827 26.2603 28.7717L11.8438 32.9016C11.789 32.9609 11.7068 32.9906 11.5973 32.9906Z" fill="#87c55b"/>
<path d="M20.3014 20.5118H20.137L8.62191 18.4469C8.12054 18.3579 7.70958 17.8149 7.79177 17.2809C7.87396 16.7469 8.37533 16.2929 8.86848 16.3819L20.3836 18.4469C20.8767 18.5359 21.2959 19.0788 21.2137 19.6129C21.1315 20.1558 20.7205 20.5118 20.3014 20.5118Z" fill="#87c55b"/>
<path d="M11.5973 12.261C11.1863 12.261 10.7671 11.9049 10.6849 11.451C10.6027 10.917 10.9315 10.374 11.4329 10.196L20.0548 8.04206C20.548 7.95306 21.0493 8.30908 21.2137 8.85202C21.3781 9.39496 20.9671 9.929 20.4658 10.107L11.8438 12.172C11.7617 12.172 11.6795 12.261 11.5973 12.261Z" fill="#87c55b"/>
</g>
<defs>
<clipPath id="clip0_102_221">
<rect width="36" height="51.1519" fill="white" transform="translate(0 0.770264)"/>
</clipPath>
</defs>
</svg>
