<svg width="60" height="61" viewBox="0 0 60 61" fill="none" xmlns="http://www.w3.org/2000/svg">
<g clip-path="url(#clip0_102_191)">
<path d="M40.2743 21.9177C39.9658 22.5439 39.863 23.16 39.9658 23.8889L41.0045 28.2421C41.2102 28.8684 41.5188 29.3817 42.0433 29.7924L44.7378 31.661C45.7766 32.2873 47.1239 32.1743 47.9569 31.353L50.4458 28.8684C51.2788 28.0368 51.4845 26.6918 50.7543 25.6548L48.7797 22.6466C48.0495 20.778 46.2908 19.6384 44.3162 19.6384C41.4056 19.4331 40.2641 21.815 40.2641 21.9177H40.2743ZM46.5068 23.3653C46.6439 23.6391 47.3707 24.7787 48.6871 26.7842L46.3011 29.1661L43.7094 27.4002L42.6706 23.1497C42.7735 23.047 43.1849 22.0101 44.5424 22.0101C45.1698 22.0101 46.0954 22.4207 46.5171 23.355L46.5068 23.3653Z" fill="#2A6F45"/>
<path d="M25.2279 50.7267C24.4977 50.7267 23.8806 51.353 23.8806 52.0717C23.8806 52.7903 24.508 53.4166 25.2279 53.4166C25.9478 53.4166 26.5752 52.7903 26.5752 52.0717C26.5752 51.353 25.9478 50.7267 25.2279 50.7267Z" fill="#2A6F45"/>
<path d="M33.2191 42.8519C32.4889 42.8519 31.8718 43.4782 31.8718 44.1969C31.8718 44.9156 32.4992 45.5419 33.2191 45.5419C33.939 45.5419 34.5664 44.9156 34.5664 44.1969C34.5664 43.4782 33.939 42.8519 33.2191 42.8519Z" fill="#2A6F45"/>
<path d="M7.99107 57.78C7.26087 57.78 6.6438 58.4063 6.6438 59.125C6.6438 59.8437 7.27116 60.47 7.99107 60.47C8.71099 60.47 9.33835 59.8437 9.33835 59.125C9.33835 58.2934 8.71099 57.78 7.99107 57.78Z" fill="#2A6F45"/>
<path d="M19.9315 28.3447C19.2013 28.3447 18.5842 28.971 18.5842 29.6897C18.5842 30.4084 19.2116 31.0347 19.9315 31.0347C20.6514 31.0347 21.2788 30.4084 21.2788 29.6897C21.2788 28.8581 20.6514 28.3447 19.9315 28.3447Z" fill="#2A6F45"/>
<path d="M23.8705 19.0223C24.611 19.0223 25.2177 19.6281 25.2177 20.3673C25.2177 21.1065 24.611 21.7123 23.8705 21.7123C23.13 21.7123 22.5232 21.1065 22.5232 20.3673C22.5232 19.6281 23.13 19.0223 23.8705 19.0223Z" fill="#2A6F45"/>
<path d="M42.4546 13.7349C42.4546 14.4638 43.0819 15.0798 43.8019 15.0798C44.5218 15.0798 45.1491 14.4535 45.1491 13.7349C45.1491 13.0162 44.5218 12.3899 43.8019 12.3899C43.0819 12.3899 42.4546 13.0162 42.4546 13.7349Z" fill="#2A6F45"/>
<path d="M13.2877 40.162C12.5575 40.162 11.9404 40.7883 11.9404 41.507C11.9404 42.2256 12.5678 42.8519 13.2877 42.8519C14.0076 42.8519 14.635 42.2256 14.635 41.507C14.635 40.7883 14.0076 40.162 13.2877 40.162Z" fill="#2A6F45"/>
<path d="M56.9866 57.78H42.3517C54.8063 52.1846 62.0775 38.7143 59.4755 24.9258V24.7205C56.7809 10.8293 44.5321 0.469971 30 0.469971C13.3905 0.469971 0 13.9402 0 30.4186C0 42.4412 7.15804 53.0059 17.6483 57.78H11.9403C11.2101 57.78 10.5931 58.4063 10.5931 59.125C10.5931 59.8437 11.2204 60.47 11.9403 60.47H56.9866C57.7168 60.47 58.3339 59.8437 58.3339 59.125C58.3339 58.2934 57.7066 57.78 56.9866 57.78ZM56.7809 25.0285C56.3696 26.3735 55.5365 28.4474 54.8063 29.1763L51.6901 32.9032C51.2787 33.4166 51.0627 34.0429 51.0627 34.6692L51.1656 37.3591L46.1879 39.9464C45.4577 40.2544 45.0463 40.9833 44.8406 41.7123L44.5321 43.5809C44.3264 44.4125 43.2876 44.8232 42.6603 44.2071C42.3517 44.0018 42.2489 43.5809 42.2489 43.1702L42.8762 37.472C42.9791 36.3324 42.362 35.2954 41.3233 34.8848L35.8211 32.5028L32.7048 28.355C31.3576 26.6917 31.3576 24.3098 32.602 22.5542L34.155 20.3776C35.1937 18.9299 34.4635 16.856 32.7048 16.4453L33.0134 15.932C33.7436 14.587 35.0909 13.7554 36.6438 13.5501C37.8882 13.4474 38.8241 12.5131 39.0298 11.3735L39.3384 9.19687L43.699 6.50693C50.3428 10.6548 55.2177 17.1846 56.7809 25.0593V25.0285ZM2.5917 30.4186C2.5917 15.6034 14.5321 3.47818 29.3726 3.05724C29.6812 5.43917 28.6424 7.8211 26.6781 9.38168C25.7113 10.1414 25.1937 10.5213 25.1251 10.5213L25.0223 10.4186C24.3949 9.17634 22.9448 8.55005 21.5975 8.971L20.7645 9.27901C19.5201 9.68968 18.687 10.8293 18.7899 12.1845C18.7899 13.5295 18.8927 13.5295 18.7899 13.6322L18.0597 14.4638C17.1238 15.5008 17.3294 16.5377 17.3294 16.6404C17.3294 17.3694 16.8152 17.9854 15.9822 18.088C15.0463 18.1907 14.1104 18.6014 13.3905 19.3303L9.55434 23.3755C7.27117 25.7574 6.02674 28.8683 6.02674 32.1845C6.02674 33.3242 6.75694 34.2585 7.79568 34.6692L12.8865 36.3221L16.1056 39.9464C16.4141 40.2544 16.7329 40.4597 17.1443 40.6753L18.9133 41.3016C20.0549 41.7123 20.3634 43.1702 19.4275 43.9915C19.119 44.2995 18.9133 44.6178 18.6973 45.0285L15.6839 54.0429C7.89853 48.9607 2.60199 40.2646 2.60199 30.4186H2.5917ZM18.1625 55.0798L21.3816 45.6548C23.6647 43.4782 22.9345 39.6486 19.9314 38.6117L18.1625 37.9854L14.9434 34.3611C14.6349 34.0531 14.2132 33.7349 13.8019 33.6322L8.71101 32.0819C8.71101 29.4946 9.74974 26.9997 11.5187 25.1414L15.3548 21.0963C15.5605 20.8909 15.869 20.6856 16.2907 20.6856C18.3682 20.4802 20.024 18.6117 19.9212 16.5377C19.9212 16.4351 19.9212 16.3324 20.024 16.2297L20.7542 15.3981C21.2684 14.8848 21.5872 14.0531 21.4844 13.3242L21.3816 12.0819C21.3816 11.9792 21.4844 11.8765 21.4844 11.8765L22.3175 11.5685C22.4203 11.5685 22.5231 11.5685 22.5231 11.6712C23.3562 13.3344 25.3308 13.7451 26.7809 12.7082L28.2311 11.6712C30.8228 9.69995 32.1803 6.58907 31.9643 3.38578C35.0806 3.59112 37.9808 4.32007 40.6856 5.56237L37.7751 7.32829C37.1478 7.73896 36.6335 8.36525 36.5307 9.19687L36.2221 11.3735C33.8361 11.5788 31.6558 12.9238 30.5142 15.1004C30.4114 15.4084 29.4755 16.4453 30.1028 18.0059C30.4114 18.7349 31.0387 19.2482 31.7689 19.4535L30.3188 21.6301C28.447 24.3201 28.5499 27.8519 30.5245 30.5418L33.7436 34.6897C34.0521 34.9977 34.3709 35.316 34.7823 35.5213L40.2845 37.9032L39.6572 43.4987C39.4515 45.778 41.2101 47.7492 43.3905 47.7492C45.1594 47.7492 46.7124 46.5069 47.1238 44.6384L47.4323 42.8724L52.4203 40.2852C53.3562 39.7718 53.8704 38.8375 53.7676 37.9032L53.8704 34.587C57.0895 30.6445 56.9866 30.8601 57.398 30.2338C57.398 50.8601 36.0165 63.7041 18.1625 55.1004V55.0798Z" fill="#2A6F45"/>
</g>
<defs>
<clipPath id="clip0_102_191">
<rect width="60" height="60" fill="white" transform="translate(0 0.469971)"/>
</clipPath>
</defs>
</svg>
