<svg width="43" height="51" viewBox="0 0 43 51" fill="none" xmlns="http://www.w3.org/2000/svg">
<g clip-path="url(#clip0_102_204)">
<path d="M14.9924 49.9112H14.7473L0.743492 45.8585C0.33498 45.769 0 45.3128 0 44.8655V7.70245C0 7.3446 0.163405 7.06727 0.408512 6.88834C0.65362 6.70941 0.9886 6.61995 1.23371 6.70941L5.43321 8.23923C5.84173 8.41816 6.095 8.77601 6.095 9.32174V9.67959C6.095 10.1269 6.095 10.5832 6.17671 11.0305L6.25841 11.2989C6.50352 12.5603 10.2128 18.0623 13.0969 22.2134C13.4237 21.7661 13.8404 21.2203 14.2489 20.5941C14.494 20.2362 14.9107 20.0484 15.3192 20.2362C15.7277 20.4152 15.981 20.773 15.981 21.2293L15.8993 48.8287C15.8993 49.1865 15.7359 49.4549 15.4908 49.6428C15.4091 49.8217 15.164 49.9112 15.0006 49.9112H14.9924ZM1.9772 43.9619L14.0038 47.4778L14.0855 24.3873C13.9221 24.5663 13.9221 24.6557 13.9221 24.6557C13.7587 24.9241 13.4237 25.0136 13.1786 25.0136C12.8518 25.0136 12.5985 24.8347 12.4351 24.6557C12.4351 24.6557 10.5396 22.0434 8.72582 19.2432C5.26164 14.0096 4.68972 12.4798 4.52632 11.8446L4.44461 11.5762C4.36291 11.1289 4.28121 10.5832 4.28121 10.1359L1.9772 9.14281V43.9619Z" fill="#87c55b"/>
<path d="M14.9924 49.9112C14.829 49.9112 14.5839 49.8217 14.4123 49.7322C14.1672 49.5533 14.0038 49.1954 14.0038 48.9181L14.0855 21.4082C14.0855 21.1398 14.1672 20.9609 14.2489 20.773C18.2033 15.0921 19.7638 12.2919 19.9354 11.5762L20.0171 11.3078C20.0171 11.2183 20.0171 11.1289 20.0988 11.0394C20.1805 10.6815 20.3439 10.3147 20.6789 10.2253L27.4357 7.52349C27.7625 7.43402 28.0975 7.43402 28.3426 7.61295C28.5877 7.79188 28.7511 8.14973 28.7511 8.51653V45.0444C28.7511 45.4917 28.506 45.9479 28.0893 46.0374L15.3192 50.099C15.1558 49.8306 15.0741 49.9201 14.9924 49.9201V49.9112ZM15.981 21.5871L15.8993 47.3883L26.7739 43.9618V9.6885L21.8309 11.6746V11.764C21.7492 12.3008 21.4224 13.7501 15.981 21.596V21.5871Z" fill="#87c55b"/>
<path d="M42.0113 49.9112H41.7662L27.4356 45.8495C27.0271 45.7601 26.6921 45.3038 26.6921 44.8565V8.2392C26.6921 7.88134 26.8555 7.60401 27.1007 7.42508C27.3458 7.24616 27.6807 7.15669 27.9258 7.24616L42.2565 11.5762C42.665 11.6656 43 12.1219 43 12.5692V48.8376C43 49.1954 42.8365 49.4638 42.6731 49.6517C42.428 49.8306 42.2646 49.9201 42.0113 49.9201V49.9112ZM28.6693 43.9618L41.1045 47.4778V13.2939L28.6693 9.59904V43.9618Z" fill="#87c55b"/>
<path d="M13.0969 25.0225C12.7701 25.0225 12.5168 24.8435 12.3534 24.6646C12.3534 24.6646 10.4579 22.0523 8.64408 19.2521C5.18806 14.0185 4.60798 12.4887 4.44457 11.8535L4.36287 11.5851C4.28117 11.0483 4.19946 10.4131 4.19946 9.77794V9.24116C4.44457 4.09703 8.31727 0.0354004 13.0969 0.0354004C17.8765 0.0354004 21.9943 4.36542 21.9943 9.77794C21.9943 10.2253 21.9943 10.6815 21.9126 11.1288C21.9126 11.3078 21.9126 11.3972 21.8309 11.4867V11.8445C21.7491 12.2919 21.4223 13.8306 15.8176 21.9449C14.7472 23.4748 13.9221 24.6467 13.9221 24.6467C13.6769 24.8257 13.4237 25.0046 13.0969 25.0046V25.0225ZM6.25836 11.3972C6.50347 12.6587 10.2128 18.1606 13.0969 22.3117C13.4237 21.8644 13.8404 21.3187 14.2489 20.6925C18.2033 15.0115 19.7638 12.2113 19.9354 11.4956L20.0171 11.2272C20.0171 11.1378 20.0171 11.0483 20.0988 10.9589C20.1805 10.601 20.1805 10.2342 20.1805 9.87635C20.1805 5.6358 17.0513 2.20936 13.1786 2.20936C9.30587 2.20936 6.42177 5.35846 6.17666 9.42009V9.77794C6.17666 10.2253 6.17666 10.6815 6.25836 11.1288V11.3972Z" fill="#87c55b"/>
<path d="M13.0968 13.929C10.7928 13.929 8.89734 11.8534 8.89734 9.33059C8.89734 6.80772 10.7928 4.73218 13.0968 4.73218C15.4009 4.73218 17.2964 6.80772 17.2964 9.33059C17.2964 11.8534 15.4009 13.929 13.0968 13.929ZM13.0968 6.80772C11.8631 6.80772 10.7928 7.97969 10.7928 9.33059C10.7928 10.6815 11.8631 11.8534 13.0968 11.8534C14.3306 11.8534 15.4009 10.6815 15.4009 9.33059C15.4009 7.97969 14.4123 6.80772 13.0968 6.80772Z" fill="#87c55b"/>
<path d="M11.4547 26.0155H9.5592V28.091H11.4547V26.0155Z" fill="#87c55b"/>
<path d="M11.4547 29.0752H9.5592V31.1507H11.4547V29.0752Z" fill="#87c55b"/>
<path d="M11.4547 32.2332H9.5592V34.3087H11.4547V32.2332Z" fill="#87c55b"/>
<path d="M11.4547 35.3912H9.5592V37.4668H11.4547V35.3912Z" fill="#87c55b"/>
<path d="M11.4547 38.5493H9.5592V40.6249H11.4547V38.5493Z" fill="#87c55b"/>
<path d="M37.2318 47.934C36.7415 47.934 36.2432 47.4867 36.2432 46.8515V20.6925C36.2432 20.1468 36.6517 19.61 37.2318 19.61C37.8119 19.61 38.2204 20.0573 38.2204 20.6925V46.8515C38.2204 47.4867 37.8119 47.934 37.2318 47.934Z" fill="#87c55b"/>
<path d="M37.2318 18.7064C36.7415 18.7064 36.2432 18.2591 36.2432 17.6239V16.5414C36.2432 16.0046 36.6517 15.4589 37.2318 15.4589C37.8119 15.4589 38.2204 15.9062 38.2204 16.5414V17.6239C38.2204 18.1696 37.8119 18.7064 37.2318 18.7064Z" fill="#87c55b"/>
<path d="M19.1102 47.934C18.6118 47.934 18.1216 47.4867 18.1216 46.8515V30.1666C18.1216 29.6209 18.5301 29.0841 19.1102 29.0841C19.6004 29.0841 20.0988 29.5314 20.0988 30.1666V46.8515C20.0988 47.4867 19.6004 47.934 19.1102 47.934Z" fill="#87c55b"/>
</g>
<defs>
<clipPath id="clip0_102_204">
<rect width="43" height="50.0636" fill="white" transform="translate(0 0.0354004)"/>
</clipPath>
</defs>
</svg>
