<svg width="42" height="42" viewBox="0 0 42 42" fill="none" xmlns="http://www.w3.org/2000/svg">
<path d="M37.4306 19.8801L13.8094 5.44447C13.6105 5.32288 13.3827 5.25649 13.1496 5.25212C12.9164 5.24776 12.6864 5.30558 12.483 5.41963C12.2796 5.53369 12.1103 5.69986 11.9925 5.90106C11.8746 6.10226 11.8125 6.33122 11.8125 6.56439V35.4357C11.8125 35.6688 11.8746 35.8978 11.9925 36.099C12.1103 36.3002 12.2796 36.4664 12.483 36.5804C12.6864 36.6945 12.9164 36.7523 13.1496 36.7479C13.3827 36.7436 13.6105 36.6772 13.8094 36.5556L37.4306 22.1199C37.6224 22.0027 37.7809 21.8381 37.8909 21.642C38.0009 21.4459 38.0587 21.2249 38.0587 21C38.0587 20.7752 38.0009 20.5541 37.8909 20.358C37.7809 20.1619 37.6224 19.9974 37.4306 19.8801Z" stroke="#2A6F45" stroke-width="2" stroke-linecap="round" stroke-linejoin="round"/>
</svg>
